<svg version="1.1" viewBox="0.0 0.0 177.06299212598427 100.0" fill="none" stroke="none" stroke-linecap="square" stroke-miterlimit="10" xmlns:xlink="http://www.w3.org/1999/xlink" xmlns="http://www.w3.org/2000/svg"><clipPath id="p.0"><path d="m0 0l177.06299 0l0 100.0l-177.06299 0l0 -100.0z" clip-rule="nonzero"/></clipPath><g clip-path="url(#p.0)"><path fill="#000000" fill-opacity="0.0" d="m0 0l177.06299 0l0 100.0l-177.06299 0z" fill-rule="evenodd"/><path fill="#000000" fill-opacity="0.0" d="m0 -16.0l173.95276 0l0 99.055115l-173.95276 0z" fill-rule="evenodd"/><path fill="#000000" d="m18.390625 79.01375q-0.4375 0 -0.90625 -0.296875q-0.46875 -0.296875 -0.8125 -0.8125q-0.671875 -0.515625 -0.671875 -1.53125q0 -1.96875 2.890625 -10.328125q0.609375 -2.390625 1.28125 -4.609375q0.609375 -1.53125 0.609375 -2.296875q0 -0.6875 0.203125 -1.578125q0.21875 -0.90625 0.21875 -1.234375q1.015625 0 1.875 -3.5q0.34375 -1.28125 0.59375 -2.171875q0.265625 -0.90625 0.34375 -1.421875q0.171875 -0.25 0.375 -0.765625q0.21875 -0.515625 0.390625 -0.9375q0.6875 -2.046875 1.625 -3.921875q1.03125 -3.84375 2.4375 -8.0625q1.40625 -4.234375 2.34375 -6.28125l1.015625 -2.546875q0.09375 -0.265625 0.390625 -0.984375q0.296875 -0.734375 0.296875 -1.0625q0 -0.34375 -0.25 -0.515625q-0.4375 -0.265625 -0.4375 -0.859375q0 -1.109375 2.046875 -2.90625q1.03125 -1.265625 1.75 -1.65625q0.734375 -0.390625 2.015625 -0.390625l2.71875 0.171875q1.03125 0.09375 5.46875 0.09375q0.9375 0.421875 2.21875 0.84375q2.5625 0.859375 2.5625 1.203125q0 0.421875 0.296875 0.59375q0.296875 0.171875 0.890625 0.25q0.859375 0 2.6875 1.921875q1.84375 1.921875 2.78125 3.96875q0.59375 1.375 0.890625 2.265625q0.296875 0.890625 0.296875 2.09375q0 1.28125 -0.171875 2.046875q-0.171875 1.359375 -0.421875 2.640625q-0.25 1.28125 -0.59375 1.625q-1.375 1.015625 -1.375 1.796875q0 0.671875 -2.171875 3.578125q-2.171875 2.90625 -4.140625 4.78125q-2.21875 2.5625 -5.28125 4.515625q-10.078125 4.53125 -14.078125 4.359375q-2.734375 0.421875 -3.34375 0.71875q-0.59375 0.296875 -0.921875 1.40625q-0.4375 1.109375 -0.828125 2.3125q-0.375 1.1875 -0.375 1.53125q-0.515625 0.9375 -2.265625 6.3125q-1.75 5.375 -2.34375 8.015625q-0.34375 1.109375 -0.765625 1.359375q-0.421875 0.265625 -1.359375 0.265625zm10.578125 -26.453125q0.171875 0.171875 1.109375 0.171875q1.109375 0 2.9375 -0.34375q1.84375 -0.34375 3.546875 -1.015625q3.0625 -1.03125 6.828125 -3.328125q1.109375 -0.765625 2.765625 -2.296875q1.671875 -1.546875 3.203125 -3.515625q0.515625 -0.84375 2.046875 -4.0q0.6875 -1.203125 1.328125 -3.078125q0.640625 -1.875 0.640625 -3.328125q0 -0.671875 -0.09375 -1.015625q-0.421875 -2.21875 -2.265625 -4.140625q-1.828125 -1.921875 -4.21875 -2.609375q-1.78125 -0.34375 -3.234375 -0.34375q-1.109375 0 -2.5625 0.265625q-1.375 0.421875 -2.015625 1.1875q-0.625 0.765625 -1.65625 3.25q-1.96875 3.75 -3.578125 8.1875q-1.546875 5.71875 -3.078125 9.46875q-1.53125 3.75 -1.796875 4.359375l0 0.34375q0 0.5 -0.09375 1.015625q-0.078125 0.515625 0.1875 0.765625zm31.485367 21.078125q-1.03125 0 -1.625 -0.34375q-0.59375 -0.34375 -1.703125 -1.28125q-2.8125 -2.984375 -2.8125 -5.453125q0 -0.59375 0.078125 -0.859375q0.265625 -0.59375 0.21875 -1.1875q-0.046875 -0.59375 -0.046875 -0.765625q-0.34375 -0.34375 -0.34375 -0.46875q0 -0.140625 0.171875 -0.265625q0.171875 -0.125 0.265625 -0.296875q0.5 0 0.328125 -0.9375q-0.171875 -0.6875 0.6875 -3.03125q0.859375 -2.34375 2.140625 -4.3125q0.9375 -1.53125 2.765625 -3.828125q1.84375 -2.3125 3.28125 -3.5q2.046875 -1.796875 3.671875 -2.640625q1.625 -0.859375 3.59375 -1.28125q1.703125 -0.4375 2.296875 -0.4375q0.59375 0 1.0625 0.296875q0.46875 0.296875 1.234375 1.078125q2.3125 1.015625 3.203125 2.59375q0.90625 1.578125 0.90625 4.90625q0 5.546875 -4.53125 12.03125q-1.953125 2.8125 -3.671875 4.3125q-1.703125 1.484375 -4.515625 3.203125q-1.796875 1.28125 -3.296875 1.84375q-1.484375 0.546875 -3.359375 0.625zm8.1875 -9.046875q2.046875 -2.296875 3.28125 -4.34375q1.25 -2.046875 2.359375 -5.203125q0.421875 -1.453125 0.421875 -3.5q0 -2.5625 -0.6875 -2.90625q-0.84375 -0.421875 -1.703125 -0.421875q-1.875 0 -3.921875 1.703125q-2.484375 2.125 -4.453125 5.25q-1.953125 3.109375 -4.0 7.71875q-0.84375 1.796875 -0.84375 3.5q0 1.28125 0.625 2.046875q0.640625 0.765625 1.75 0.765625q2.828125 0 7.171875 -4.609375zm21.24582 10.671875q-1.53125 -0.59375 -2.984375 -1.75q-1.453125 -1.15625 -1.96875 -2.0q0 -0.171875 0 -0.59375q0 -0.4375 0.25 -0.5625q0.265625 -0.125 0.953125 -0.125q1.453125 0 4.609375 0.328125q1.875 0 4.265625 -0.46875q2.390625 -0.46875 2.640625 -1.0625q0.265625 0 0.265625 -0.078125q0 -0.171875 -0.6875 -0.859375q-0.171875 0 -0.78125 -0.296875q-0.59375 -0.296875 -0.75 -0.296875q0 -0.34375 -0.78125 -0.890625q-0.765625 -0.5625 -1.703125 -0.984375q-2.46875 -2.046875 -3.5 -3.03125q-1.015625 -0.984375 -0.765625 -1.40625l0 -0.4375q-0.59375 0 -1.328125 -1.65625q-0.71875 -1.671875 -0.71875 -3.109375q0 -1.546875 1.3125 -4.265625q1.328125 -2.734375 3.046875 -4.4375q2.390625 -2.21875 6.1875 -4.6875q3.796875 -2.484375 6.015625 -3.171875q1.4375 -0.59375 2.890625 -0.59375q1.375 0 2.3125 0.59375q1.109375 0.6875 2.171875 1.96875q1.0625 1.28125 1.40625 2.296875q0 1.875 -0.390625 3.625q-0.375 1.75 -1.140625 1.75q-0.09375 0 -0.265625 0.09375q-0.171875 0.078125 -0.171875 0.421875q0 0.34375 -0.34375 0.90625q-0.328125 0.546875 -0.9375 1.0625q-1.875 1.359375 -3.0625 1.359375q-0.9375 0 -1.203125 -0.9375q-0.15625 -0.171875 -0.328125 -0.515625q-0.171875 -0.34375 -0.4375 -0.34375q-0.078125 0 -0.296875 -0.296875q-0.203125 -0.296875 -0.203125 -0.8125q0 -0.25 0.203125 -0.546875q0.21875 -0.296875 0.296875 -0.390625q0.515625 0 1.703125 -2.0q1.203125 -2.0 1.203125 -2.6875q0 -0.515625 -0.125 -0.59375q-0.125 -0.09375 -0.8125 -0.09375q-6.65625 2.984375 -8.28125 4.53125q-0.25 0.5 -0.390625 0.671875q-0.125 0.171875 -0.453125 0.171875q0 -0.765625 -4.53125 5.8125q-0.171875 0.171875 -0.390625 1.03125q-0.203125 0.84375 -0.203125 1.4375q-0.171875 0.6875 -0.171875 0.765625q0 0.34375 0.296875 0.6875q0.296875 0.34375 0.8125 0.734375q0.515625 0.375 1.03125 0.796875q4.421875 3.328125 6.171875 5.0q1.75 1.65625 2.09375 2.765625q1.109375 1.703125 1.109375 3.078125q0 1.015625 -0.765625 1.796875q-0.765625 0.765625 -2.296875 1.4375q-0.9375 0.4375 -3.15625 0.734375q-2.21875 0.296875 -4.359375 0.296875q-1.1875 0 -2.5625 -0.171875zm34.565628 -0.515625q-1.203125 -0.34375 -1.96875 -0.765625q-0.765625 -0.421875 -2.046875 -1.625q-1.53125 -2.046875 -2.0 -3.796875q-0.46875 -1.75 -0.46875 -5.59375q0 -2.046875 2.296875 -11.25q-0.171875 0.59375 0.59375 -2.484375q0.265625 -0.9375 -0.671875 -1.1875q-0.9375 -0.265625 -2.65625 -0.265625q-1.4375 0 -1.703125 -0.171875q-0.25 -0.078125 -0.296875 -0.25q-0.046875 -0.171875 -0.046875 -0.25q0 -0.4375 -0.34375 -1.03125q-0.078125 -0.078125 -0.078125 -0.25q0 -0.4375 0.46875 -0.9375q0.46875 -0.515625 1.15625 -0.59375q0.421875 -0.09375 1.953125 -0.265625q1.546875 -0.171875 2.90625 -0.671875q1.359375 -0.515625 2.140625 -1.453125q1.109375 -2.828125 2.8125 -6.359375q1.703125 -3.546875 2.296875 -4.234375q1.375 -0.671875 1.875 -0.671875q0.515625 0 0.859375 0.34375q0.34375 0.328125 0.9375 1.1875q0.09375 0.171875 0.421875 0.609375q0.34375 0.421875 0.34375 0.84375q0 0.6875 -0.640625 2.046875q-0.640625 1.359375 -2.515625 4.78125l-1.109375 2.125q0.265625 0.09375 1.203125 0.09375q0.9375 0 1.53125 -0.09375q1.875 -0.34375 3.5 -0.34375q0.84375 0 1.1875 0.09375q1.96875 0 2.859375 0.734375q0.90625 0.71875 1.0625 2.421875q0.171875 0.9375 -0.34375 1.109375q-0.5 0.171875 -2.890625 0.171875q-9.90625 0.421875 -9.984375 0.765625q-0.34375 0.25 -1.28125 2.984375q-0.9375 2.734375 -1.625 5.203125q-1.109375 5.125 -1.109375 9.046875q0 3.59375 1.03125 4.78125q0.421875 0.421875 1.625 0.421875q1.1875 0 2.59375 -0.46875q1.40625 -0.46875 2.34375 -1.234375q1.546875 -1.28125 2.5625 -1.28125q0.515625 0 0.8125 0.296875q0.296875 0.296875 0.296875 0.734375q0 0.9375 -1.015625 2.390625q-1.28125 1.953125 -3.421875 3.234375q-2.125 1.28125 -4.09375 1.28125q-0.9375 0 -1.359375 -0.171875z" fill-rule="nonzero"/><path fill="#000000" d="m147.22792 75.26375q-1.53125 -0.59375 -2.984375 -1.75q-1.453125 -1.15625 -1.96875 -2.0q0 -0.171875 0 -0.59375q0 -0.4375 0.25 -0.5625q0.265625 -0.125 0.953125 -0.125q1.453125 0 4.609375 0.328125q1.875 0 4.265625 -0.46875q2.390625 -0.46875 2.640625 -1.0625q0.265625 0 0.265625 -0.078125q0 -0.171875 -0.6875 -0.859375q-0.171875 0 -0.78125 -0.296875q-0.59375 -0.296875 -0.75 -0.296875q0 -0.34375 -0.78125 -0.890625q-0.765625 -0.5625 -1.703125 -0.984375q-2.46875 -2.046875 -3.5 -3.03125q-1.015625 -0.984375 -0.765625 -1.40625l0 -0.4375q-0.59375 0 -1.328125 -1.65625q-0.71875 -1.671875 -0.71875 -3.109375q0 -1.546875 1.3125 -4.265625q1.328125 -2.734375 3.046875 -4.4375q2.390625 -2.21875 6.1875 -4.6875q3.796875 -2.484375 6.015625 -3.171875q1.4375 -0.59375 2.890625 -0.59375q1.375 0 2.3125 0.59375q1.109375 0.6875 2.171875 1.96875q1.0625 1.28125 1.40625 2.296875q0 1.875 -0.390625 3.625q-0.375 1.75 -1.140625 1.75q-0.09375 0 -0.265625 0.09375q-0.171875 0.078125 -0.171875 0.421875q0 0.34375 -0.34375 0.90625q-0.328125 0.546875 -0.9375 1.0625q-1.875 1.359375 -3.0625 1.359375q-0.9375 0 -1.203125 -0.9375q-0.15625 -0.171875 -0.328125 -0.515625q-0.171875 -0.34375 -0.4375 -0.34375q-0.078125 0 -0.296875 -0.296875q-0.203125 -0.296875 -0.203125 -0.8125q0 -0.25 0.203125 -0.546875q0.21875 -0.296875 0.296875 -0.390625q0.515625 0 1.703125 -2.0q1.203125 -2.0 1.203125 -2.6875q0 -0.515625 -0.125 -0.59375q-0.125 -0.09375 -0.8125 -0.09375q-6.65625 2.984375 -8.28125 4.53125q-0.25 0.5 -0.390625 0.671875q-0.125 0.171875 -0.453125 0.171875q0 -0.765625 -4.53125 5.8125q-0.171875 0.171875 -0.390625 1.03125q-0.203125 0.84375 -0.203125 1.4375q-0.171875 0.6875 -0.171875 0.765625q0 0.34375 0.296875 0.6875q0.296875 0.34375 0.8125 0.734375q0.515625 0.375 1.03125 0.796875q4.421875 3.328125 6.171875 5.0q1.75 1.65625 2.09375 2.765625q1.109375 1.703125 1.109375 3.078125q0 1.015625 -0.765625 1.796875q-0.765625 0.765625 -2.296875 1.4375q-0.9375 0.4375 -3.15625 0.734375q-2.21875 0.296875 -4.359375 0.296875q-1.1875 0 -2.5625 -0.171875z" fill-rule="nonzero"/><path fill="#000000" fill-opacity="0.0" d="m27.78794 7.950127l37.76378 11.149607l-19.151737 64.94937l-8.150227 4.4364166l-31.46969 -9.291298z" fill-rule="evenodd"/><path fill="#000000" fill-opacity="0.0" d="m38.249756 88.48552l2.7437286 -4.664116l5.406498 0.22769928z" fill-rule="evenodd"/><path fill="#000000" fill-opacity="0.0" d="m38.249756 88.48552l2.7437286 -4.664116l5.406498 0.22769928l-8.150227 4.4364166l-31.46969 -9.291298l21.007874 -71.244095l37.76378 11.149607l-19.151737 64.94937" fill-rule="evenodd"/><path fill="#000000" fill-opacity="0.2" d="m38.249756 88.48552l2.7437286 -4.664116l5.406498 0.22769928z" fill-rule="evenodd"/><path stroke="#434343" stroke-width="2.0" stroke-linejoin="round" stroke-linecap="butt" d="m38.249756 88.48552l2.7437286 -4.664116l5.406498 0.22769928l-8.150227 4.4364166l-31.46969 -9.291298l21.007874 -71.244095l37.76378 11.149607l-19.151737 64.94937" fill-rule="evenodd"/></g></svg>